<svg xmlns="http://www.w3.org/2000/svg" width="480" height="600" viewBox="0 0 480 600"><defs><linearGradient id="fabric"><stop stop-color="#89a5b5"/><stop offset="1" stop-color="#89a5b5" stop-opacity=".94"/></linearGradient></defs><path d="M180 38L216 20L240 65L264 20L300 38L342 55L436 165L411 444L350 438L338 548H142L130 438L69 444L44 165L138 55Z" fill="url(#fabric)" stroke="#35473c" stroke-width="3" stroke-linejoin="round"/><path d="M240 65V548 M216 20L192 83L228 115 M264 20L288 83L252 115 M156 295H210V380H156Z M270 295H324V380H270Z M142 518H338 M73 415L130 409 M350 409L407 415" fill="none" stroke="#35473c" stroke-opacity=".45" stroke-width="2"/></svg>